<svg xmlns="http://www.w3.org/2000/svg" viewBox="0 0 256 256">
  <defs>
    <linearGradient id="logo-gradient" x1="0%" y1="0%" x2="100%" y2="100%">
      <stop offset="0%" stop-color="#41D1FF"/>
      <stop offset="100%" stop-color="#BD34FE"/>
    </linearGradient>
  </defs>
  <path fill="url(#logo-gradient)" d="M240.5 128c0 62.9-51.1 114-114 114S12.5 190.9 12.5 128 63.6 14 126.5 14s114 51.1 114 114z"/>
  <path fill="#fff" d="M126.5 34c-51.8 0-94 42.2-94 94s42.2 94 94 94 94-42.2 94-94-42.2-94-94-94zm0 174c-44.2 0-80-35.8-80-80s35.8-80 80-80 80 35.8 80 80-35.8 80-80 80z"/>
  <path fill="url(#logo-gradient)" d="M126.5 54c-33.1 0-60 26.9-60 60s26.9 60 60 60 60-26.9 60-60-26.9-60-60-60zm0 100c-22.1 0-40-17.9-40-40s17.9-40 40-40 40 17.9 40 40-17.9 40-40 40z"/>
  <path fill="#fff" d="M126.5 74c-22.1 0-40 17.9-40 40s17.9 40 40 40 40-17.9 40-40-17.9-40-40-40zm0 60c-11 0-20-9-20-20s9-20 20-20 20 9 20 20-9 20-20 20z"/>
  <path fill="url(#logo-gradient)" d="M126.5 94c-11 0-20 9-20 20s9 20 20 20 20-9 20-20-9-20-20-20z"/>
</svg>
